<?xml version="1.0" encoding="UTF-8"?>
<svg version="1.1" xmlns="http://www.w3.org/2000/svg" width="122" height="53">
<path d="M0 0 C40.26 0 80.52 0 122 0 C122 17.49 122 34.98 122 53 C81.74 53 41.48 53 0 53 C0 35.51 0 18.02 0 0 Z " fill="#FCFDFB" transform="translate(0,0)"/>
<path d="M0 0 C7.24486551 -0.02526739 14.48971974 -0.0428318 21.73461914 -0.05493164 C24.20142033 -0.05997356 26.66821852 -0.06680691 29.13500977 -0.07543945 C32.67204529 -0.08751125 36.20904145 -0.09322956 39.74609375 -0.09765625 C40.85649521 -0.10281754 41.96689667 -0.10797882 43.11094666 -0.11329651 C44.64242088 -0.11340981 44.64242088 -0.11340981 46.20483398 -0.11352539 C47.10862289 -0.115746 48.0124118 -0.11796661 48.94358826 -0.12025452 C51 0 51 0 52 1 C52 3.64 52 6.28 52 9 C37.81 9 23.62 9 9 9 C9 11.97 9 14.94 9 18 C9.61530075 17.99333817 10.2306015 17.98667633 10.86454773 17.97981262 C17.27219413 17.91341004 23.67974267 17.86817885 30.08764648 17.83520508 C32.4786374 17.82012457 34.86960068 17.79965723 37.26049805 17.77368164 C40.69847435 17.73726694 44.13608469 17.72026601 47.57421875 17.70703125 C48.64210129 17.69154739 49.70998383 17.67606354 50.81022644 17.66011047 C59.99967462 17.65802958 59.99967462 17.65802958 64 21 C67.54338194 24.54338194 65 30.98890121 65 36 C80.84 36 96.68 36 113 36 C113 38.97 113 41.94 113 45 C110.0979461 45.9673513 108.39359007 46.10155771 105.38728333 46.04432678 C104.44077408 46.02887314 103.49426483 46.01341949 102.51907349 45.99749756 C101.4825766 45.97520081 100.44607971 45.95290405 99.37817383 45.92993164 C98.28533585 45.91057053 97.19249786 45.89120941 96.06654358 45.8712616 C92.44659477 45.8058844 88.82683603 45.73304217 85.20703125 45.66015625 C82.70025977 45.61342796 80.19347959 45.56716406 77.68669128 45.52134705 C71.75807972 45.41186436 65.82957022 45.29769047 59.90109223 45.18125385 C52.48948907 45.03597505 45.07775365 44.89796179 37.66601562 44.75976562 C24.44389543 44.51235034 11.22191257 44.25825668 -2 44 C-2 41.03 -2 38.06 -2 35 C16.15 35 34.3 35 53 35 C53 32.36 53 29.72 53 27 C51.99188766 27.00666183 51.99188766 27.00666183 50.96340942 27.01345825 C43.98848592 27.05759634 37.01360187 27.08782667 30.03857422 27.10986328 C27.43308909 27.11994064 24.82761531 27.1336027 22.22216797 27.15087891 C18.48402101 27.17505102 14.74602315 27.1864656 11.0078125 27.1953125 C9.25152023 27.21079636 9.25152023 27.21079636 7.45974731 27.22659302 C5.838293 27.22681961 5.838293 27.22681961 4.18408203 27.22705078 C3.22921906 27.231492 2.27435608 27.23593323 1.29055786 27.24050903 C-1 27 -1 27 -3 25 C-4.19382328 20.05952379 -4.11810123 15.17188106 -4.0625 10.125 C-4.05798828 9.34125 -4.05347656 8.5575 -4.04882812 7.75 C-4.03714093 5.83329986 -4.01920908 3.91663952 -4 2 C-2.68 2 -1.36 2 0 2 C0 1.34 0 0.68 0 0 Z " fill="#E47715" transform="translate(7,4)"/>
<path d="M0 0 C1.71643456 0.01061211 1.71643456 0.01061211 3.46754456 0.0214386 C7.10534337 0.04932118 10.74157635 0.11205283 14.37890625 0.17578125 C16.85219124 0.20087184 19.32550047 0.22368367 21.79882812 0.24414062 C27.84688414 0.29912789 33.8940333 0.3826944 39.94140625 0.48828125 C41.9943395 4.24766006 42.17453222 6.91192073 42.13671875 11.22265625 C42.13027344 12.51816406 42.12382813 13.81367188 42.1171875 15.1484375 C42.10047818 16.51172144 42.08354831 17.87500269 42.06640625 19.23828125 C42.05636965 20.6171811 42.04724498 21.9960879 42.0390625 23.375 C42.01548718 26.74627007 41.98257895 30.11718761 41.94140625 33.48828125 C40.29140625 32.82828125 38.64140625 32.16828125 36.94140625 31.48828125 C36.44640625 31.98328125 36.44640625 31.98328125 35.94140625 32.48828125 C33.06876569 32.58934999 30.22066997 32.62797797 27.34765625 32.62109375 C26.48579712 32.62205048 25.62393799 32.6230072 24.73596191 32.62399292 C22.91007413 32.62467475 21.08418394 32.62282029 19.25830078 32.61865234 C16.45339547 32.61330411 13.6486503 32.61859724 10.84375 32.625 C9.07421839 32.62433922 7.30468689 32.62305806 5.53515625 32.62109375 C4.6903772 32.62311798 3.84559814 32.62514221 2.97521973 32.62722778 C-2.94364344 32.60323156 -2.94364344 32.60323156 -4.05859375 31.48828125 C-4.20296875 30.33328125 -4.34734375 29.17828125 -4.49609375 27.98828125 C-4.77453125 26.25578125 -4.77453125 26.25578125 -5.05859375 24.48828125 C-5.71859375 24.15828125 -6.37859375 23.82828125 -7.05859375 23.48828125 C-8.26203951 20.30058267 -7.99213096 17.63606183 -7.55859375 14.30078125 C-7.35249864 12.70120216 -7.17579139 11.09681884 -7.05859375 9.48828125 C-7.38859375 9.15828125 -7.71859375 8.82828125 -8.05859375 8.48828125 C-8.05859375 11.12828125 -8.05859375 13.76828125 -8.05859375 16.48828125 C-9.37859375 16.48828125 -10.69859375 16.48828125 -12.05859375 16.48828125 C-12.05859375 15.82828125 -12.05859375 15.16828125 -12.05859375 14.48828125 C-14.36859375 14.48828125 -16.67859375 14.48828125 -19.05859375 14.48828125 C-19.2494323 13.09788609 -19.38426755 11.69974978 -19.49609375 10.30078125 C-19.57730469 9.52347656 -19.65851562 8.74617187 -19.7421875 7.9453125 C-18.84185491 4.70925992 -17.05722401 3.40222381 -14.3377533 1.54829407 C-9.78354689 -0.5698188 -4.92790118 -0.11547322 0 0 Z " fill="#FBFDFA" transform="translate(80.05859375,4.51171875)"/>
<path d="M0 0 C16.83 0 33.66 0 51 0 C51 0.33 51 0.66 51 1 C50.11130219 1.00546844 50.11130219 1.00546844 49.20465088 1.01104736 C43.04000577 1.05284707 36.87610694 1.12217458 30.71191406 1.20751953 C28.41120873 1.23575104 26.11040601 1.25695466 23.80957031 1.27099609 C20.50274721 1.29239486 17.19709774 1.33903108 13.890625 1.390625 C12.86132874 1.39185364 11.83203247 1.39308228 10.77154541 1.39434814 C5.22872609 1.44086731 5.22872609 1.44086731 0.35742188 3.79492188 C-1.68513174 7.1129694 -1.67636706 10.46125049 -1.75 14.25 C-1.79447266 15.36761719 -1.79447266 15.36761719 -1.83984375 16.5078125 C-1.9102343 18.33796672 -1.95741832 20.16898769 -2 22 C-1.34 22 -0.68 22 0 22 C0.33 22.66 0.66 23.32 1 24 C3.91725834 24.97241945 5.88803439 25.15167819 8.93041992 25.20532227 C10.43163643 25.2352401 10.43163643 25.2352401 11.96318054 25.26576233 C13.04138565 25.28247482 14.11959076 25.29918732 15.23046875 25.31640625 C16.88880486 25.3475779 16.88880486 25.3475779 18.5806427 25.37937927 C22.1161979 25.44482332 25.65182806 25.50373603 29.1875 25.5625 C31.58269008 25.6056901 33.97787255 25.64930454 36.37304688 25.69335938 C42.24861842 25.80049948 48.12426472 25.90227557 54 26 C54.05607422 27.22976562 54.05607422 27.22976562 54.11328125 28.484375 C54.21189453 30.10085937 54.21189453 30.10085937 54.3125 31.75 C54.37050781 32.81734375 54.42851563 33.8846875 54.48828125 34.984375 C55.03912817 38.2305874 55.70984188 39.67176324 58 42 C60.94309863 42.98103288 62.9496903 43.15221687 66.0222168 43.20532227 C67.55346443 43.2352401 67.55346443 43.2352401 69.11564636 43.26576233 C70.21572525 43.28247482 71.31580414 43.29918732 72.44921875 43.31640625 C73.5769722 43.33718735 74.70472565 43.35796844 75.86665344 43.37937927 C79.4735396 43.44482847 83.08049929 43.50373844 86.6875 43.5625 C89.13086702 43.60568961 91.57422656 43.64930404 94.01757812 43.69335938 C100.01164074 43.80050516 106.00577671 43.90228029 112 44 C112 41.36 112 38.72 112 36 C112.33 36 112.66 36 113 36 C113 38.97 113 41.94 113 45 C110.0979461 45.9673513 108.39359007 46.10155771 105.38728333 46.04432678 C104.44077408 46.02887314 103.49426483 46.01341949 102.51907349 45.99749756 C101.4825766 45.97520081 100.44607971 45.95290405 99.37817383 45.92993164 C98.28533585 45.91057053 97.19249786 45.89120941 96.06654358 45.8712616 C92.44659477 45.8058844 88.82683603 45.73304217 85.20703125 45.66015625 C82.70025977 45.61342796 80.19347959 45.56716406 77.68669128 45.52134705 C71.75807972 45.41186436 65.82957022 45.29769047 59.90109223 45.18125385 C52.48948907 45.03597505 45.07775365 44.89796179 37.66601562 44.75976562 C24.44389543 44.51235034 11.22191257 44.25825668 -2 44 C-2 41.03 -2 38.06 -2 35 C16.15 35 34.3 35 53 35 C53 32.36 53 29.72 53 27 C51.99188766 27.00666183 51.99188766 27.00666183 50.96340942 27.01345825 C43.98848592 27.05759634 37.01360187 27.08782667 30.03857422 27.10986328 C27.43308909 27.11994064 24.82761531 27.1336027 22.22216797 27.15087891 C18.48402101 27.17505102 14.74602315 27.1864656 11.0078125 27.1953125 C9.25152023 27.21079636 9.25152023 27.21079636 7.45974731 27.22659302 C5.838293 27.22681961 5.838293 27.22681961 4.18408203 27.22705078 C3.22921906 27.231492 2.27435608 27.23593323 1.29055786 27.24050903 C-1 27 -1 27 -3 25 C-4.19382328 20.05952379 -4.11810123 15.17188106 -4.0625 10.125 C-4.05798828 9.34125 -4.05347656 8.5575 -4.04882812 7.75 C-4.03714093 5.83329986 -4.01920908 3.91663952 -4 2 C-2.68 2 -1.36 2 0 2 C0 1.34 0 0.68 0 0 Z " fill="#FBE5C3" transform="translate(7,4)"/>
<path d="M0 0 C0.99 0.33 1.98 0.66 3 1 C3 1.99 3 2.98 3 4 C3.74330566 3.34805664 4.48661133 2.69611328 5.25244141 2.02441406 C10.05266517 -1.15146062 15.4073982 -0.49424618 20.9609375 -0.390625 C22.10664215 -0.38496521 23.2523468 -0.37930542 24.43276978 -0.37347412 C28.08061055 -0.35114072 31.72745768 -0.30094736 35.375 -0.25 C37.85285037 -0.22993119 40.33071618 -0.21168109 42.80859375 -0.1953125 C48.87273303 -0.15128576 54.93629551 -0.08440286 61 0 C61 0.33 61 0.66 61 1 C60.37217117 1.00364563 59.74434235 1.00729126 59.0974884 1.01104736 C52.55965228 1.0528758 46.02251795 1.12222411 39.48510742 1.20751953 C37.04572572 1.23573547 34.60625248 1.25694685 32.16674805 1.27099609 C28.65886552 1.2924161 25.15208429 1.33906435 21.64453125 1.390625 C20.55477493 1.39185364 19.46501862 1.39308228 18.34223938 1.39434814 C12.57355107 1.50579399 9.21053377 1.6458822 5 6 C4.34 6 3.68 6 3 6 C3 8.97 3 11.94 3 15 C5.31 15 7.62 15 10 15 C10 15.66 10 16.32 10 17 C11.32 17 12.64 17 14 17 C14 14.36 14 11.72 14 9 C29.51 9 45.02 9 61 9 C61 9.33 61 9.66 61 10 C45.82 10 30.64 10 15 10 C15 18.25 15 26.5 15 35 C29.85 35 44.7 35 60 35 C60 35.33 60 35.66 60 36 C44.82 36 29.64 36 14 36 C13.67 31.38 13.34 26.76 13 22 C8.0384119 18.9538638 8.0384119 18.9538638 2.8425293 18.56762695 C1.84186935 18.54783279 0.84120941 18.52803864 -0.18977356 18.50764465 C-1.2576561 18.50125473 -2.32553864 18.49486481 -3.42578125 18.48828125 C-5.07987251 18.46135445 -5.07987251 18.46135445 -6.76737976 18.43388367 C-10.28238119 18.37978996 -13.79724687 18.3458871 -17.3125 18.3125 C-19.69858659 18.2793262 -22.08465527 18.24483648 -24.47070312 18.20898438 C-30.31368036 18.12406393 -36.15667519 18.05570992 -42 18 C-42 15.03 -42 12.06 -42 9 C-27.81 9 -13.62 9 1 9 C0.505 4.545 0.505 4.545 0 0 Z " fill="#F2EDDE" transform="translate(58,4)"/>
<path d="M0 0 C1.12209366 0.00707474 2.24418732 0.01414948 3.40028381 0.0214386 C6.96676692 0.04931643 10.53165161 0.11204676 14.09765625 0.17578125 C16.52276371 0.20087248 18.94789589 0.22368419 21.37304688 0.24414062 C27.30262413 0.2991215 33.23127597 0.3826829 39.16015625 0.48828125 C39.16015625 3.12828125 39.16015625 5.76828125 39.16015625 8.48828125 C23.65015625 8.48828125 8.14015625 8.48828125 -7.83984375 8.48828125 C-7.83984375 11.12828125 -7.83984375 13.76828125 -7.83984375 16.48828125 C-9.15984375 16.48828125 -10.47984375 16.48828125 -11.83984375 16.48828125 C-11.83984375 15.82828125 -11.83984375 15.16828125 -11.83984375 14.48828125 C-14.14984375 14.48828125 -16.45984375 14.48828125 -18.83984375 14.48828125 C-19.0306823 13.09788609 -19.16551755 11.69974978 -19.27734375 10.30078125 C-19.35855469 9.52347656 -19.43976562 8.74617187 -19.5234375 7.9453125 C-18.62204893 4.70546444 -16.8271765 3.40391055 -14.10557556 1.54829407 C-9.61781275 -0.55128633 -4.86114658 -0.11621725 0 0 Z " fill="#272827" transform="translate(79.83984375,4.51171875)"/>
<path d="M0 0 C17.16 0 34.32 0 52 0 C52 1.98 52 3.96 52 6 C51 7 51 7 48.94358826 7.12025452 C48.03979935 7.11803391 47.13601044 7.11581329 46.20483398 7.11352539 C45.18385117 7.11344986 44.16286835 7.11337433 43.11094666 7.11329651 C42.0005452 7.10813522 40.89014374 7.10297394 39.74609375 7.09765625 C38.61551041 7.0962413 37.48492706 7.09482635 36.32008362 7.09336853 C32.69252935 7.08775019 29.06503576 7.07519458 25.4375 7.0625 C22.98502693 7.05748736 20.5325529 7.05292405 18.08007812 7.04882812 C12.05336455 7.0377748 6.02668661 7.02101884 0 7 C0 4.69 0 2.38 0 0 Z " fill="#040405" transform="translate(6,40)"/>
<path d="M0 0 C1.65 0.33 3.3 0.66 5 1 C5 5.62 5 10.24 5 15 C8.10350837 15.77587709 10.29149656 16.14129552 13.40136719 16.20532227 C14.2619574 16.22526749 15.12254761 16.24521271 16.00921631 16.26576233 C16.92914368 16.28247482 17.84907104 16.29918732 18.796875 16.31640625 C19.74564514 16.33718735 20.69441528 16.35796844 21.67193604 16.37937927 C24.69788482 16.44467934 27.7239192 16.50366888 30.75 16.5625 C32.80339421 16.6057038 34.85677982 16.64931869 36.91015625 16.69335938 C41.9400168 16.80034073 46.96996332 16.90166323 52 17 C52 18.32 52 19.64 52 21 C45.23733723 21.05069411 38.47472345 21.08573108 31.71191406 21.10986328 C29.41111418 21.1199232 27.1103271 21.13357262 24.80957031 21.15087891 C21.5032231 21.17512735 18.19704488 21.18648323 14.890625 21.1953125 C13.3466806 21.21079636 13.3466806 21.21079636 11.77154541 21.22659302 C10.81085144 21.22674408 9.85015747 21.22689514 8.86035156 21.22705078 C8.01651917 21.231492 7.17268677 21.23593323 6.30328369 21.24050903 C3.74094814 20.97294979 2.14039519 20.42966135 0 19 C-0.5390625 16.28515625 -0.5390625 16.28515625 -0.625 13.0625 C-0.72932798 8.22379851 -0.72932798 8.22379851 -3 4 C-0.69 4.66 1.62 5.32 4 6 C3.72382467 4.05925139 3.72382467 4.05925139 3 2 C2.01 1.34 1.02 0.68 0 0 Z " fill="#E2791C" transform="translate(64,25)"/>
<path d="M0 0 C1.485 0.99 1.485 0.99 3 2 C3.29296875 4.8203125 3.29296875 4.8203125 3.1875 8.125 C3.16042969 9.22070312 3.13335937 10.31640625 3.10546875 11.4453125 C3.07066406 12.28835937 3.03585938 13.13140625 3 14 C6.00782611 14.86386658 8.73527404 15.14775505 11.86035156 15.20532227 C13.30139252 15.2352401 13.30139252 15.2352401 14.77154541 15.26576233 C16.31548981 15.29083107 16.31548981 15.29083107 17.890625 15.31640625 C18.95037537 15.33718735 20.01012573 15.35796844 21.10198975 15.37937927 C24.48459438 15.44472186 27.86727612 15.50368881 31.25 15.5625 C33.54427878 15.60569975 35.83854979 15.64931451 38.1328125 15.69335938 C43.75512702 15.8003876 49.3775181 15.90218239 55 16 C55 14.68 55 13.36 55 12 C40.81 12 26.62 12 12 12 C12 11.34 12 10.68 12 10 C27.18 10 42.36 10 58 10 C58 12.64 58 15.28 58 18 C50.82843832 18.07609679 43.65698086 18.12861962 36.48510742 18.16479492 C34.04561472 18.17987654 31.6061491 18.20034469 29.16674805 18.22631836 C25.65927441 18.26272812 22.15215946 18.27973289 18.64453125 18.29296875 C17.55477493 18.30845261 16.46501862 18.32393646 15.34223938 18.33988953 C5.79855873 18.34200824 5.79855873 18.34200824 2 15 C-0.35119399 11.47320901 -0.21443452 9.97120515 -0.125 5.8125 C-0.10695312 4.72582031 -0.08890625 3.63914063 -0.0703125 2.51953125 C-0.04710937 1.68808594 -0.02390625 0.85664063 0 0 Z " fill="#CE8E4F" transform="translate(61,30)"/>
<path d="M0 0 C11.88 0 23.76 0 36 0 C36 2.31 36 4.62 36 7 C24.12 7 12.24 7 0 7 C0 4.69 0 2.38 0 0 Z " fill="#D38238" transform="translate(82,23)"/>
<path d="M0 0 C1.60279192 0.00015914 3.20558896 0.00585476 4.80834961 0.01586914 C5.65038437 0.01728409 6.49241913 0.01869904 7.35997009 0.02015686 C10.06024671 0.02577276 12.76044163 0.03832791 15.46069336 0.05102539 C17.28686404 0.05603834 19.11303602 0.06060161 20.93920898 0.06469727 C25.42556878 0.07574735 29.9118672 0.0930226 34.39819336 0.11352539 C35.92267967 3.09621599 37.33759403 5.93172739 38.39819336 9.11352539 C37.48046875 11.27441406 37.48046875 11.27441406 35.39819336 13.11352539 C32.49627272 13.48159531 29.97928528 13.60371937 27.08178711 13.53930664 C26.26952164 13.53601852 25.45725616 13.53273041 24.62037659 13.52934265 C22.90471375 13.51892484 21.18908613 13.49897982 19.47363281 13.47021484 C16.84217055 13.42613389 14.21161977 13.40877949 11.57983398 13.39672852 C9.91380515 13.38330467 8.24778757 13.36838175 6.58178711 13.35180664 C5.79219101 13.34441971 5.00259491 13.33703278 4.18907166 13.329422 C-1.36507569 13.23189087 -1.36507569 13.23189087 -3.60180664 12.11352539 C-4.89630159 8.23004055 -4.73383976 5.20655203 -4.60180664 1.11352539 C-3.60180664 0.11352539 -3.60180664 0.11352539 0 0 Z M-1.60180664 2.11352539 C-1.60180664 4.42352539 -1.60180664 6.73352539 -1.60180664 9.11352539 C10.27819336 9.11352539 22.15819336 9.11352539 34.39819336 9.11352539 C34.39819336 6.80352539 34.39819336 4.49352539 34.39819336 2.11352539 C22.51819336 2.11352539 10.63819336 2.11352539 -1.60180664 2.11352539 Z " fill="#FCEFD7" transform="translate(83.601806640625,20.886474609375)"/>
<path d="M0 0 C1.6207972 0.01061211 1.6207972 0.01061211 3.27433777 0.0214386 C6.7187582 0.04938278 10.1615413 0.11212492 13.60546875 0.17578125 C15.94333587 0.20086392 18.28122851 0.22367714 20.61914062 0.24414062 C26.34430676 0.29920949 32.06852078 0.38283706 37.79296875 0.48828125 C37.79296875 3.12828125 37.79296875 5.76828125 37.79296875 8.48828125 C23.60296875 8.48828125 9.41296875 8.48828125 -5.20703125 8.48828125 C-2.3020597 5.5833097 0.74696181 6.13382955 4.64453125 6.07421875 C5.41856293 6.0548526 6.1925946 6.03548645 6.99008179 6.01553345 C9.4659315 5.95568295 11.94182758 5.90933114 14.41796875 5.86328125 C16.09507252 5.82510643 17.77215659 5.786055 19.44921875 5.74609375 C23.56364228 5.64997716 27.67815761 5.56596686 31.79296875 5.48828125 C32.12296875 4.82828125 32.45296875 4.16828125 32.79296875 3.48828125 C26.40259644 3.46301063 20.01223692 3.44544808 13.62182617 3.43334961 C11.44604002 3.42830817 9.27025728 3.42147518 7.09448242 3.4128418 C3.97443808 3.40076787 0.85443837 3.3950512 -2.265625 3.390625 C-3.24478378 3.38546371 -4.22394257 3.38030243 -5.23277283 3.37498474 C-6.13363113 3.37490921 -7.03448944 3.37483368 -7.96264648 3.37475586 C-8.75984604 3.37253525 -9.55704559 3.37031464 -10.37840271 3.36802673 C-12.22625406 3.28777669 -12.22625406 3.28777669 -13.20703125 4.48828125 C-13.44404364 7.34706034 -13.62922307 10.18711422 -13.76953125 13.05078125 C-13.81271484 13.85708984 -13.85589844 14.66339844 -13.90039062 15.49414062 C-14.00678387 17.4919693 -14.10744013 19.49010195 -14.20703125 21.48828125 C-14.86703125 21.48828125 -15.52703125 21.48828125 -16.20703125 21.48828125 C-16.342628 18.9239961 -16.44136313 16.36692909 -16.51953125 13.80078125 C-16.56142578 13.07955078 -16.60332031 12.35832031 -16.64648438 11.61523438 C-16.66259766 10.90947266 -16.67871094 10.20371094 -16.6953125 9.4765625 C-16.72149658 8.83243408 -16.74768066 8.18830566 -16.7746582 7.5246582 C-14.43426034 -0.87158203 -7.12500888 -0.17578344 0 0 Z " fill="#D4985E" transform="translate(21.20703125,4.51171875)"/>
<path d="M0 0 C0.33 0 0.66 0 1 0 C1 2.97 1 5.94 1 9 C1.61530075 8.99333817 2.2306015 8.98667633 2.86454773 8.97981262 C9.27219413 8.91341004 15.67974267 8.86817885 22.08764648 8.83520508 C24.4786374 8.82012457 26.86960068 8.79965723 29.26049805 8.77368164 C32.69847435 8.73726694 36.13608469 8.72026601 39.57421875 8.70703125 C40.64210129 8.69154739 41.70998383 8.67606354 42.81022644 8.66011047 C51.99967462 8.65802958 51.99967462 8.65802958 56 12 C57.99616554 13.99616554 57.40983427 17.81701963 57.5625 20.5625 C57.60568359 21.27341797 57.64886719 21.98433594 57.69335938 22.71679688 C57.79971777 24.47761912 57.90038846 26.2387832 58 28 C56.68 27.67 55.36 27.34 54 27 C53.67 22.38 53.34 17.76 53 13 C35.84 12.67 18.68 12.34 1 12 C1 11.34 1 10.68 1 10 C0.34 10 -0.32 10 -1 10 C-1.02689216 8.52093108 -1.04634621 7.04172517 -1.0625 5.5625 C-1.07410156 4.73878906 -1.08570313 3.91507813 -1.09765625 3.06640625 C-1 1 -1 1 0 0 Z " fill="#D3823A" transform="translate(15,13)"/>
<path d="M0 0 C16.5 0 33 0 50 0 C50 1.98 50 3.96 50 6 C35.81 6 21.62 6 7 6 C7.33 4.68 7.66 3.36 8 2 C5.36 1.67 2.72 1.34 0 1 C0 0.67 0 0.34 0 0 Z " fill="#020202" transform="translate(68,6)"/>
<path d="M0 0 C1 3 1 3 0.5625 5.125 C-0.29364992 9.50087738 -1.04098714 14.91802572 1 19 C25.75 19.495 25.75 19.495 51 20 C51.495 21.485 51.495 21.485 52 23 C44.95250518 23.05068569 37.90505732 23.08572754 30.85742188 23.10986328 C28.45961755 23.11992445 26.0618255 23.13357479 23.6640625 23.15087891 C20.21871918 23.1751218 16.77353801 23.18648198 13.328125 23.1953125 C12.25508118 23.20563507 11.18203735 23.21595764 10.07647705 23.22659302 C9.07574158 23.22674408 8.0750061 23.22689514 7.04394531 23.22705078 C5.72490204 23.23371262 5.72490204 23.23371262 4.37921143 23.24050903 C1.79039308 22.97881132 0.17933855 22.4085931 -2 21 C-3.79204587 15.25459232 -3.4432729 7.8232924 -2 2 C-1.34 1.34 -0.68 0.68 0 0 Z " fill="#D5843C" transform="translate(9,7)"/>
<path d="M0 0 C15.51 0 31.02 0 47 0 C47 0.33 47 0.66 47 1 C31.82 1 16.64 1 1 1 C1 9.25 1 17.5 1 26 C15.85 26 30.7 26 46 26 C46 26.33 46 26.66 46 27 C30.82 27 15.64 27 0 27 C-0.33 22.38 -0.66 17.76 -1 13 C-5.9615881 9.9538638 -5.9615881 9.9538638 -11.1574707 9.56762695 C-12.15813065 9.54783279 -13.15879059 9.52803864 -14.18977356 9.50764465 C-15.2576561 9.50125473 -16.32553864 9.49486481 -17.42578125 9.48828125 C-19.07987251 9.46135445 -19.07987251 9.46135445 -20.76737976 9.43388367 C-24.28238119 9.37978996 -27.79724687 9.3458871 -31.3125 9.3125 C-33.69858659 9.2793262 -36.08465527 9.24483648 -38.47070312 9.20898438 C-44.31368036 9.12406393 -50.15667519 9.05570992 -56 9 C-56 8.67 -56 8.34 -56 8 C-33.23 7.505 -33.23 7.505 -10 7 C-10 6.67 -10 6.34 -10 6 C-8.02 6 -6.04 6 -4 6 C-4 6.66 -4 7.32 -4 8 C-2.68 8 -1.36 8 0 8 C0 5.36 0 2.72 0 0 Z " fill="#E6CDB1" transform="translate(72,13)"/>
<path d="M0 0 C5.94482112 -0.02467203 11.8896126 -0.04284663 17.83447266 -0.05493164 C19.85791543 -0.05996831 21.88135456 -0.06679789 23.90478516 -0.07543945 C26.80892843 -0.08753412 29.71302369 -0.09323488 32.6171875 -0.09765625 C33.52556366 -0.10281754 34.43393982 -0.10797882 35.36984253 -0.11329651 C36.21056305 -0.11337204 37.05128357 -0.11344757 37.91748047 -0.11352539 C39.03000687 -0.11685631 39.03000687 -0.11685631 40.16500854 -0.12025452 C42 0 42 0 44 1 C43.67 1.99 43.34 2.98 43 4 C30.79 4.33 18.58 4.66 6 5 C6.33 3.68 6.66 2.36 7 1 C4.69 1.33 2.38 1.66 0 2 C0 1.34 0 0.68 0 0 Z " fill="#DB7B20" transform="translate(10,7)"/>
<path d="M0 0 C0.99 0.33 1.98 0.66 3 1 C3.33 3.31 3.66 5.62 4 8 C9.51757479 8.02467609 15.03511761 8.04284856 20.55273438 8.05493164 C22.43066975 8.05996763 24.3086012 8.06679671 26.18652344 8.07543945 C28.88217132 8.08753713 31.57776747 8.09323557 34.2734375 8.09765625 C35.11619232 8.10281754 35.95894714 8.10797882 36.82723999 8.11329651 C41.04731361 8.23367039 41.04731361 8.23367039 45 7 C45 7.66 45 8.32 45 9 C46.32 9.33 47.64 9.66 49 10 C49.125 13.375 49.125 13.375 49 17 C48.34 17.66 47.68 18.32 47 19 C47 16.69 47 14.38 47 12 C23.735 11.505 23.735 11.505 0 11 C0 7.37 0 3.74 0 0 Z " fill="#FEFBED" transform="translate(73,28)"/>
<path d="M0 0 C0 1.65 0 3.3 0 5 C-13.86 5 -27.72 5 -42 5 C-42 4.01 -42 3.02 -42 2 C-40.90010742 1.97494385 -39.80021484 1.9498877 -38.66699219 1.92407227 C-34.58175235 1.82981794 -30.49667539 1.72964135 -26.41162109 1.62768555 C-24.64440728 1.58440486 -22.8771535 1.54272495 -21.10986328 1.50268555 C-18.5679114 1.44481649 -16.02615941 1.38117019 -13.484375 1.31640625 C-12.30134796 1.29133751 -12.30134796 1.29133751 -11.09442139 1.26576233 C-7.35540376 1.16504796 -3.62620263 0 0 0 Z " fill="#F8FDFE" transform="translate(60,14)"/>
<path d="M0 0 C17.49 0 34.98 0 53 0 C53.99 2.97 54.98 5.94 56 9 C37.52 9 19.04 9 0 9 C0 6.03 0 3.06 0 0 Z M1 1 C1 3.31 1 5.62 1 8 C8.24486551 8.02526739 15.48971974 8.0428318 22.73461914 8.05493164 C25.20142033 8.05997356 27.66821852 8.06680691 30.13500977 8.07543945 C33.67204529 8.08751125 37.20904145 8.09322956 40.74609375 8.09765625 C41.85649521 8.10281754 42.96689667 8.10797882 44.11094666 8.11329651 C45.13192947 8.11337204 46.15291229 8.11344757 47.20483398 8.11352539 C48.56051735 8.11685631 48.56051735 8.11685631 49.94358826 8.12025452 C51.99253581 8.22900462 51.99253581 8.22900462 53 7 C53 5.02 53 3.04 53 1 C35.84 1 18.68 1 1 1 Z " fill="#777676" transform="translate(5,39)"/>
<path d="M0 0 C16.83 0 33.66 0 51 0 C51 0.33 51 0.66 51 1 C50.11130219 1.00546844 50.11130219 1.00546844 49.20465088 1.01104736 C43.04000577 1.05284707 36.87610694 1.12217458 30.71191406 1.20751953 C28.41120873 1.23575104 26.11040601 1.25695466 23.80957031 1.27099609 C20.50274721 1.29239486 17.19709774 1.33903108 13.890625 1.390625 C12.86132874 1.39185364 11.83203247 1.39308228 10.77154541 1.39434814 C5.22872609 1.44086731 5.22872609 1.44086731 0.35742188 3.79492188 C-1.68513174 7.1129694 -1.67636706 10.46125049 -1.75 14.25 C-1.79447266 15.36761719 -1.79447266 15.36761719 -1.83984375 16.5078125 C-1.9102343 18.33796672 -1.95741832 20.16898769 -2 22 C-1.34 22 -0.68 22 0 22 C0.33 22.66 0.66 23.32 1 24 C2.88764903 24.68472665 2.88764903 24.68472665 5.0625 25.125 C5.79597656 25.29257812 6.52945312 25.46015625 7.28515625 25.6328125 C7.85105469 25.75398438 8.41695312 25.87515625 9 26 C9 26.33 9 26.66 9 27 C7.37536158 27.05395478 5.75021459 27.09277195 4.125 27.125 C3.22007813 27.14820312 2.31515625 27.17140625 1.3828125 27.1953125 C-1 27 -1 27 -3 25 C-4.19382328 20.05952379 -4.11810123 15.17188106 -4.0625 10.125 C-4.05798828 9.34125 -4.05347656 8.5575 -4.04882812 7.75 C-4.03714093 5.83329986 -4.01920908 3.91663952 -4 2 C-2.68 2 -1.36 2 0 2 C0 1.34 0 0.68 0 0 Z " fill="#FDECD1" transform="translate(7,4)"/>
<path d="M0 0 C1.60279192 0.00015914 3.20558896 0.00585476 4.80834961 0.01586914 C5.65038437 0.01728409 6.49241913 0.01869904 7.35997009 0.02015686 C10.06024671 0.02577276 12.76044163 0.03832791 15.46069336 0.05102539 C17.28686404 0.05603834 19.11303602 0.06060161 20.93920898 0.06469727 C25.42556878 0.07574735 29.9118672 0.0930226 34.39819336 0.11352539 C34.39819336 0.77352539 34.39819336 1.43352539 34.39819336 2.11352539 C22.51819336 2.11352539 10.63819336 2.11352539 -1.60180664 2.11352539 C-1.60180664 4.42352539 -1.60180664 6.73352539 -1.60180664 9.11352539 C-2.59180664 9.11352539 -3.58180664 9.11352539 -4.60180664 9.11352539 C-4.69946289 2.96118164 -4.69946289 2.96118164 -4.60180664 1.11352539 C-3.60180664 0.11352539 -3.60180664 0.11352539 0 0 Z " fill="#FBE4C2" transform="translate(83.601806640625,20.886474609375)"/>
<path d="M0 0 C17.49 0.33 34.98 0.66 53 1 C53 3.64 53 6.28 53 9 C51.68 8.67 50.36 8.34 49 8 C49.66 8 50.32 8 51 8 C50.505 5.525 50.505 5.525 50 3 C49.10464035 3.00333092 49.10464035 3.00333092 48.19119263 3.00672913 C41.99481808 3.02880297 35.79845465 3.04391542 29.60205078 3.05493164 C27.28759304 3.05996943 24.9731385 3.06679981 22.65869141 3.07543945 C19.3375571 3.08752924 16.01646475 3.09323375 12.6953125 3.09765625 C11.13588425 3.10539818 11.13588425 3.10539818 9.54495239 3.11329651 C8.58410736 3.11337204 7.62326233 3.11344757 6.63330078 3.11352539 C5.78502716 3.115746 4.93675354 3.11796661 4.06277466 3.12025452 C2 3 2 3 0 2 C0 1.34 0 0.68 0 0 Z " fill="#FEFBE6" transform="translate(7,30)"/>
<path d="M0 0 C2 4 2 4 3 9 C17.19 9.33 31.38 9.66 46 10 C45.67 10.66 45.34 11.32 45 12 C30.15 11.67 15.3 11.34 0 11 C0 7.37 0 3.74 0 0 Z " fill="#FEF5D6" transform="translate(73,28)"/>
<path d="M0 0 C1.485 0.99 1.485 0.99 3 2 C3.29296875 4.8203125 3.29296875 4.8203125 3.1875 8.125 C3.16042969 9.22070312 3.13335937 10.31640625 3.10546875 11.4453125 C3.07066406 12.28835937 3.03585938 13.13140625 3 14 C5.475 14.99 5.475 14.99 8 16 C6.68 16.33 5.36 16.66 4 17 C1.19358805 14.54438955 0.06421329 12.72617673 -0.265625 8.99609375 C-0.25142274 5.98876484 -0.17237569 3.00220998 0 0 Z " fill="#CA9255" transform="translate(61,30)"/>
<path d="M0 0 C1.485 0.99 1.485 0.99 3 2 C3.38411275 4.609621 3.60293197 7.0058074 3.6875 9.625 C3.72166016 10.33140625 3.75582031 11.0378125 3.79101562 11.765625 C3.87351308 13.50985688 3.93843335 15.25490395 4 17 C2.68 16.67 1.36 16.34 0 16 C0 10.72 0 5.44 0 0 Z " fill="#D08335" transform="translate(69,24)"/>
<path d="M0 0 C1 3 1 3 0.5625 5.125 C-0.29364992 9.50087738 -1.04098714 14.91802572 1 19 C4.02934491 19.65772428 4.02934491 19.65772428 7 20 C7 20.33 7 20.66 7 21 C3.6875 21.25 3.6875 21.25 0 21 C-1.7421875 19.4609375 -1.7421875 19.4609375 -3 17 C-3.10696773 14.33447977 -3.06169172 12.00283995 -2.8125 9.375 C-2.74579102 8.3540625 -2.74579102 8.3540625 -2.67773438 7.3125 C-2.27449483 2.27449483 -2.27449483 2.27449483 0 0 Z " fill="#CB7C35" transform="translate(9,7)"/>
<path d="M0 0 C0.33 0 0.66 0 1 0 C1.03738281 0.73605469 1.07476562 1.47210938 1.11328125 2.23046875 C1.52984473 9.60412658 1.52984473 9.60412658 5 16 C2 18 2 18 -0.1875 17.625 C-1.0846875 17.315625 -1.0846875 17.315625 -2 17 C-1.01 17 -0.02 17 1 17 C0.01 14.03 -0.98 11.06 -2 8 C-1.34 8 -0.68 8 0 8 C0 5.36 0 2.72 0 0 Z " fill="#F7ECCE" transform="translate(60,31)"/>
<path d="M0 0 C0.33 0 0.66 0 1 0 C1 4.29 1 8.58 1 13 C1.66 13 2.32 13 3 13 C3.33 13.66 3.66 14.32 4 15 C5.88764903 15.68472665 5.88764903 15.68472665 8.0625 16.125 C8.79597656 16.29257812 9.52945312 16.46015625 10.28515625 16.6328125 C10.85105469 16.75398438 11.41695312 16.87515625 12 17 C12 17.33 12 17.66 12 18 C10.37536158 18.05395478 8.75021459 18.09277195 7.125 18.125 C6.22007813 18.14820312 5.31515625 18.17140625 4.3828125 18.1953125 C2 18 2 18 0 16 C-0.14507695 13.25514407 -0.18652423 10.61519457 -0.125 7.875 C-0.11146484 6.74384766 -0.11146484 6.74384766 -0.09765625 5.58984375 C-0.0740687 3.72642746 -0.03819719 1.86317407 0 0 Z " fill="#FCEAD0" transform="translate(4,13)"/>
<path d="M0 0 C0.33 0 0.66 0 1 0 C1 1.98 1 3.96 1 6 C1.99 6 2.98 6 4 6 C4.33 7.32 4.66 8.64 5 10 C3.33388095 10.042721 1.66617115 10.04063832 0 10 C-1 9 -1 9 -1.1328125 7.1875 C-1.13023438 6.465625 -1.12765625 5.74375 -1.125 5 C-1.12757812 4.278125 -1.13015625 3.55625 -1.1328125 2.8125 C-1 1 -1 1 0 0 Z " fill="#EB770F" transform="translate(67,34)"/>
<path d="M0 0 C0.99 0.33 1.98 0.66 3 1 C4.39151652 5.79300133 3.68662689 10.15135782 3 15 C2.71125 14.360625 2.4225 13.72125 2.125 13.0625 C1.17176549 10.84793921 1.17176549 10.84793921 -1 10 C-0.67 9.67 -0.34 9.34 0 9 C0.07179964 7.48071962 0.08392007 5.95832518 0.0625 4.4375 C0.05347656 3.61121094 0.04445312 2.78492188 0.03515625 1.93359375 C0.02355469 1.29550781 0.01195312 0.65742187 0 0 Z " fill="#F6F4E5" transform="translate(58,4)"/>
<path d="M0 0 C2.64 0 5.28 0 8 0 C7.1875 2.4375 7.1875 2.4375 6 5 C5.01 5.33 4.02 5.66 3 6 C2.67 5.01 2.34 4.02 2 3 C1.34 2.67 0.68 2.34 0 2 C0 1.34 0 0.68 0 0 Z " fill="#F5F9F6" transform="translate(58,2)"/>
<path d="M0 0 C0.66 0 1.32 0 2 0 C2 2.97 2 5.94 2 9 C1.01 9 0.02 9 -1 9 C-1.09765625 2.84765625 -1.09765625 2.84765625 -1 1 C-0.67 0.67 -0.34 0.34 0 0 Z " fill="#F8E8CF" transform="translate(80,21)"/>
<path d="M0 0 C1.65 0 3.3 0 5 0 C4.67 1.32 4.34 2.64 4 4 C2.68 4.33 1.36 4.66 0 5 C-0.33 4.01 -0.66 3.02 -1 2 C-0.67 1.34 -0.34 0.68 0 0 Z " fill="#E77913" transform="translate(12,8)"/>
<path d="M0 0 C2.97 0.495 2.97 0.495 6 1 C6 2.98 6 4.96 6 7 C1.125 2.25 1.125 2.25 0 0 Z " fill="#FAE8CB" transform="translate(67,21)"/>
<path d="M0 0 C1.32 1.32 2.64 2.64 4 4 C2.75 5.5625 2.75 5.5625 1 7 C-1.1875 6.6875 -1.1875 6.6875 -3 6 C-2.01 6 -1.02 6 0 6 C0 4.02 0 2.04 0 0 Z " fill="#E7DAC6" transform="translate(61,42)"/>
</svg>
